<?xml version="1.0" encoding="iso-8859-1"?>
<!-- Generator: Adobe Illustrator 16.0.0, SVG Export Plug-In . SVG Version: 6.00 Build 0)  -->
<!DOCTYPE svg PUBLIC "-//W3C//DTD SVG 1.1//EN" "http://www.w3.org/Graphics/SVG/1.1/DTD/svg11.dtd">
<svg version="1.1" id="Capa_1" xmlns="http://www.w3.org/2000/svg" xmlns:xlink="http://www.w3.org/1999/xlink" x="0px" y="0px"
	 width="314.021px" height="314.021px" viewBox="0 0 314.021 314.021" style="enable-background:new 0 0 314.021 314.021;"
	 xml:space="preserve">
<g>
	<g id="_x36_1._Download">
		<g>
			<path d="M298.32,125.617h-31.33c-0.031,0-0.056-0.008-0.075-0.008h-78.506l36.003-36c6.131-6.125,4.063-11.101-4.601-11.101
				h-31.402V31.406c0-8.668-7.037-15.701-15.701-15.701h-31.402c-8.666,0-15.699,7.033-15.699,15.701v47.102H94.205
				c-8.667,0-10.734,4.975-4.601,11.101l36.002,36H47.103c-0.024,0-0.048,0.008-0.078,0.008H15.701
				C7.033,125.617,0,132.644,0,141.31c0,8.668,7.033,15.701,15.701,15.701v109.904c0,17.344,14.06,31.402,31.402,31.402h219.812
				c17.34,0,31.397-14.059,31.397-31.402V157.011h0.008c8.673,0,15.701-7.033,15.701-15.701
				C314.021,132.644,306.993,125.617,298.32,125.617z M266.915,266.915H47.103V157.019l0,0v-31.402h78.503l20.292,20.293
				c6.133,6.133,16.069,6.133,22.201,0l20.293-20.293h78.522V266.915z"/>
		</g>
	</g>
</g>
<g>
</g>
<g>
</g>
<g>
</g>
<g>
</g>
<g>
</g>
<g>
</g>
<g>
</g>
<g>
</g>
<g>
</g>
<g>
</g>
<g>
</g>
<g>
</g>
<g>
</g>
<g>
</g>
<g>
</g>
</svg>
